<svg preserveAspectRatio="none" width="100%" height="100%" overflow="visible" style="display: block;" viewBox="0 0 12.6316 12" fill="none" xmlns="http://www.w3.org/2000/svg">
<path id="Vector" d="M6.31543 0.5C9.57267 0.5 12.1318 2.87465 12.1318 5.68457C12.1316 8.49433 9.57253 10.8682 6.31543 10.8682C5.48083 10.8681 4.67824 10.7137 3.92578 10.4102L3.69922 10.3193L3.48828 10.4404C2.63128 10.9351 1.54826 11.2261 0.856445 11.375C0.966778 11.1659 1.06223 10.9354 1.14258 10.6895C1.31673 10.1565 1.43735 9.51825 1.50195 8.80371L1.51855 8.61914L1.41016 8.46777C0.811793 7.63233 0.500076 6.67224 0.5 5.68457C0.5 2.87476 3.05837 0.500183 6.31543 0.5Z" stroke="#A9A8AD"/>
</svg>
