<svg preserveAspectRatio="none" width="100%" height="100%" overflow="visible" style="display: block;" viewBox="0 0 12.7263 12" fill="none" xmlns="http://www.w3.org/2000/svg">
<path id="Icon" d="M3.46078 11.2059C3.46078 11.6078 3.12745 11.9314 2.73529 11.9314H0.72549C0.323529 11.9314 0 11.6078 0 11.2059V5.5098C0 5.10784 0.323529 4.78431 0.72549 4.78431H2.72549C3.12745 4.78431 3.45098 5.10784 3.45098 5.5098L3.46078 11.2059ZM11.9706 6.73529C12.402 7.07843 12.4706 7.70588 12.1275 8.13725C11.9902 8.31373 11.7941 8.43137 11.5784 8.48039C12.0098 8.82353 12.0784 9.45098 11.7353 9.87255C11.598 10.049 11.402 10.1667 11.1765 10.2255C11.6078 10.5686 11.6765 11.1961 11.3235 11.6275C11.1373 11.8627 10.8529 12 10.549 12L4.91176 11.9412C4.5098 11.9412 4.18627 11.6176 4.18627 11.2157V5.5098C4.18627 4.60784 7.06863 2.95098 7.21569 2.05882C7.31373 1.47059 7.18627 0 7.57843 0C8.2549 0 9.10784 0.254902 9.10784 1.7451C9.10784 3.05882 8.2451 4.76471 8.2451 4.76471H11.7353C12.2843 4.76471 12.7255 5.20588 12.7255 5.7549C12.7451 6.23529 12.4216 6.63725 11.9706 6.73529Z" fill="#E73437"/>
</svg>
