<svg preserveAspectRatio="none" width="100%" height="100%" overflow="visible" style="display: block;" viewBox="0 0 13.7263 13" fill="none" xmlns="http://www.w3.org/2000/svg">
<path id="Icon" d="M3.96078 11.7059C3.96078 12.1078 3.62745 12.4314 3.23529 12.4314H1.22549C0.823529 12.4314 0.5 12.1078 0.5 11.7059V6.0098C0.5 5.60784 0.823529 5.28431 1.22549 5.28431H3.22549C3.62745 5.28431 3.95098 5.60784 3.95098 6.0098L3.96078 11.7059ZM12.4706 7.23529C12.902 7.57843 12.9706 8.20588 12.6275 8.63725C12.4902 8.81373 12.2941 8.93137 12.0784 8.98039C12.5098 9.32353 12.5784 9.95098 12.2353 10.3725C12.098 10.549 11.902 10.6667 11.6765 10.7255C12.1078 11.0686 12.1765 11.6961 11.8235 12.1275C11.6373 12.3627 11.3529 12.5 11.049 12.5L5.41176 12.4412C5.0098 12.4412 4.68627 12.1176 4.68627 11.7157V6.0098C4.68627 5.10784 7.56863 3.45098 7.71569 2.55882C7.81373 1.97059 7.68627 0.5 8.07843 0.5C8.7549 0.5 9.60784 0.754902 9.60784 2.2451C9.60784 3.55882 8.7451 5.26471 8.7451 5.26471H12.2353C12.7843 5.26471 13.2255 5.70588 13.2255 6.2549C13.2451 6.73529 12.9216 7.13725 12.4706 7.23529Z" stroke="#A9A8AD"/>
</svg>
