<svg preserveAspectRatio="none" width="100%" height="100%" overflow="visible" style="display: block;" viewBox="0 0 24 24" fill="none" xmlns="http://www.w3.org/2000/svg">
<g id="fi_9991176">
<path id="Vector" d="M19.3799 12C19.3799 12.8435 18.6938 13.5296 17.8503 13.5296C17.0068 13.5296 16.3207 12.8435 16.3207 12C16.3207 11.1565 17.0068 10.4704 17.8503 10.4704C18.6938 10.4704 19.3799 11.1565 19.3799 12ZM12 10.4704C11.1568 10.4704 10.4704 11.1565 10.4704 12C10.4704 12.8435 11.1568 13.5296 12 13.5296C12.8435 13.5296 13.5299 12.8435 13.5299 12C13.5299 11.1565 12.8435 10.4704 12 10.4704ZM6.1497 10.4704C5.30653 10.4704 4.62012 11.1565 4.62012 12C4.62012 12.8435 5.30653 13.5296 6.1497 13.5296C6.99322 13.5296 7.67963 12.8435 7.67963 12C7.67963 11.1565 6.99322 10.4704 6.1497 10.4704Z" fill="#979799"/>
</g>
</svg>
