<svg preserveAspectRatio="none" width="100%" height="100%" overflow="visible" style="display: block;" viewBox="0 0 14.3354 12" fill="none" xmlns="http://www.w3.org/2000/svg">
<path id="Vector" d="M9.79395 0.5C9.88245 0.5 10.0348 0.543625 10.248 0.756836L13.4932 4.00195C13.7141 4.22296 13.835 4.51651 13.835 4.83301C13.8349 5.14959 13.7141 5.44316 13.4932 5.66406L10.248 8.90918C10.0349 9.1223 9.88241 9.16602 9.79395 9.16602C9.73648 9.16598 9.67618 9.14491 9.62695 9.09082C9.57793 9.03681 9.49707 8.90119 9.49707 8.59766V6.99121L8.97852 7.01074C5.63547 7.13651 2.5771 8.696 0.504883 11.3379C0.565646 9.04612 1.48468 6.90292 3.1123 5.27539C4.7032 3.68462 6.78616 2.76921 9.01855 2.67188L9.49707 2.65137V1.06836C9.49707 0.765022 9.57793 0.629268 9.62695 0.575195C9.67616 0.521131 9.73644 0.500047 9.79395 0.5Z" stroke="#A9A8AD"/>
</svg>
