<svg preserveAspectRatio="none" width="100%" height="100%" overflow="visible" style="display: block;" viewBox="0 0 20 20" fill="none" xmlns="http://www.w3.org/2000/svg">
<g id="Layer 2">
<path id="Vector" d="M17.8571 1.42857H15V0.714286C15 0.524845 14.9247 0.343164 14.7908 0.209209C14.6568 0.0752549 14.4752 0 14.2857 0C14.0963 0 13.9146 0.0752549 13.7806 0.209209C13.6467 0.343164 13.5714 0.524845 13.5714 0.714286V1.42857H6.42857V0.714286C6.42857 0.524845 6.35332 0.343164 6.21936 0.209209C6.08541 0.0752549 5.90373 0 5.71429 0C5.52485 0 5.34316 0.0752549 5.20921 0.209209C5.07526 0.343164 5 0.524845 5 0.714286V1.42857H2.14286C1.57454 1.42857 1.02949 1.65434 0.627628 2.0562C0.225765 2.45806 0 3.00311 0 3.57143V17.8571C0 18.4255 0.225765 18.9705 0.627628 19.3724C1.02949 19.7742 1.57454 20 2.14286 20H17.8571C18.4255 20 18.9705 19.7742 19.3724 19.3724C19.7742 18.9705 20 18.4255 20 17.8571V3.57143C20 3.00311 19.7742 2.45806 19.3724 2.0562C18.9705 1.65434 18.4255 1.42857 17.8571 1.42857ZM2.14286 2.85714H17.8571C18.0466 2.85714 18.2283 2.9324 18.3622 3.06635C18.4962 3.20031 18.5714 3.38199 18.5714 3.57143V5.71429H1.42857V3.57143C1.42857 3.38199 1.50383 3.20031 1.63778 3.06635C1.77174 2.9324 1.95342 2.85714 2.14286 2.85714ZM17.8571 18.5714H2.14286C1.95342 18.5714 1.77174 18.4962 1.63778 18.3622C1.50383 18.2283 1.42857 18.0466 1.42857 17.8571V7.14286H18.5714V17.8571C18.5714 18.0466 18.4962 18.2283 18.3622 18.3622C18.2283 18.4962 18.0466 18.5714 17.8571 18.5714Z" fill="#93949A"/>
<path id="Vector_2" d="M13.1068 9.45752L8.60684 13.3147L6.93113 11.6397C6.79641 11.5096 6.61598 11.4376 6.4287 11.4392C6.24142 11.4408 6.06227 11.5159 5.92983 11.6484C5.7974 11.7808 5.72228 11.96 5.72065 12.1472C5.71902 12.3345 5.79102 12.5149 5.92113 12.6497L8.06399 14.7925C8.19122 14.9196 8.36169 14.994 8.54136 15.0009C8.72103 15.0077 8.89669 14.9466 9.03327 14.8297L14.0333 10.5439C14.1085 10.4843 14.171 10.41 14.2169 10.3256C14.2628 10.2412 14.2912 10.1484 14.3004 10.0528C14.3096 9.95718 14.2995 9.86068 14.2705 9.76908C14.2416 9.67748 14.1944 9.59266 14.132 9.51969C14.0695 9.44672 13.9929 9.38711 13.9068 9.34442C13.8208 9.30173 13.727 9.27684 13.6311 9.27124C13.5352 9.26563 13.4391 9.27943 13.3487 9.31181C13.2582 9.34418 13.1753 9.39447 13.1047 9.45966L13.1068 9.45752Z" fill="#93949A"/>
</g>
</svg>
