<svg preserveAspectRatio="none" width="100%" height="100%" overflow="visible" style="display: block;" viewBox="0 0 20 20" fill="none" xmlns="http://www.w3.org/2000/svg">
<g id="Group">
<path id="Vector" d="M16.2909 18.5714H1.42859V3.70912C1.42859 3.31483 1.10858 2.99482 0.714293 2.99482C0.320003 2.99482 0 3.31483 0 3.70912V19.2857C0 19.6807 0.320003 20 0.714293 20H16.2909C16.6859 20 17.0052 19.6807 17.0052 19.2857C17.0052 18.8907 16.6852 18.5714 16.2909 18.5714Z" fill="#93949A"/>
<path id="Vector_2" d="M19.2857 0H3.70912C3.31483 0 2.99482 0.320003 2.99482 0.714293V16.2909C2.99482 16.6859 3.31483 17.0052 3.70912 17.0052H19.2857C19.6807 17.0052 20 16.6859 20 16.2909V0.714293C20 0.320003 19.6807 0 19.2857 0ZM18.5714 15.5766H4.42341V1.42859H18.5714V15.5766Z" fill="#93949A"/>
<path id="Vector_3" d="M7.60361 5.32267H15.3923C15.7873 5.32267 16.1066 5.00267 16.1066 4.60838C16.1066 4.21409 15.7873 3.89408 15.3923 3.89408H7.60361C7.20932 3.89408 6.88931 4.21409 6.88931 4.60838C6.88931 5.00267 7.20932 5.32267 7.60361 5.32267Z" fill="#93949A"/>
<path id="Vector_4" d="M7.60361 9.21716H15.3923C15.7873 9.21716 16.1066 8.89716 16.1066 8.50287C16.1066 8.10858 15.7873 7.78857 15.3923 7.78857H7.60361C7.20932 7.78857 6.88931 8.10858 6.88931 8.50287C6.88931 8.89716 7.20932 9.21716 7.60361 9.21716Z" fill="#93949A"/>
<path id="Vector_5" d="M7.60361 13.1104H15.3923C15.7873 13.1104 16.1066 12.7911 16.1066 12.3961C16.1066 12.0011 15.7873 11.6818 15.3923 11.6818H7.60361C7.20932 11.6818 6.88931 12.0011 6.88931 12.3961C6.88931 12.7911 7.20932 13.1104 7.60361 13.1104Z" fill="#93949A"/>
</g>
</svg>
