<svg preserveAspectRatio="none" width="100%" height="100%" overflow="visible" style="display: block;" viewBox="0 0 24 24" fill="none" xmlns="http://www.w3.org/2000/svg">
<g id="fi_1946488">
<path id="Vector" d="M21.4619 10.699C21.4613 10.6986 21.4609 10.698 21.4604 10.6975L13.302 2.5394C12.9542 2.1915 12.4919 2 12.0001 2C11.5083 2 11.046 2.1915 10.6981 2.5394L2.54394 10.6934C2.54119 10.6961 2.53829 10.699 2.5357 10.7018C1.82159 11.42 1.82281 12.5853 2.53921 13.3017C2.86651 13.6292 3.29864 13.8187 3.76083 13.8387C3.77975 13.8405 3.79867 13.8414 3.81774 13.8414H4.14275V19.8452C4.14275 21.0334 5.10955 22 6.29775 22H9.48959C9.81323 22 10.0755 21.7375 10.0755 21.4141V16.707C10.0755 16.1649 10.5167 15.7239 11.0588 15.7239H12.9414C13.4836 15.7239 13.9246 16.1649 13.9246 16.707V21.4141C13.9246 21.7375 14.1869 22 14.5105 22H17.7023C18.8907 22 19.8573 21.0334 19.8573 19.8452V13.8414H20.1588C20.6505 13.8414 21.1128 13.6499 21.4609 13.3019C22.178 12.5844 22.1783 11.417 21.4619 10.699ZM20.6322 12.4733C20.5057 12.5998 20.3375 12.6696 20.1588 12.6696H19.2714C18.9477 12.6696 18.6854 12.9319 18.6854 13.2555V19.8452C18.6854 20.3871 18.2445 20.8281 17.7023 20.8281H15.0964V16.707C15.0964 15.5188 14.1298 14.552 12.9414 14.552H11.0588C9.87045 14.552 8.90365 15.5188 8.90365 16.707V20.8281H6.29775C5.75576 20.8281 5.31463 20.3871 5.31463 19.8452V13.2555C5.31463 12.9319 5.05233 12.6696 4.72869 12.6696H3.8565C3.84734 12.6689 3.83834 12.6685 3.82903 12.6683C3.65447 12.6653 3.49075 12.596 3.36807 12.4732C3.10714 12.2122 3.10714 11.7876 3.36807 11.5265C3.36822 11.5265 3.36822 11.5264 3.36837 11.5262L3.36883 11.5258L11.5269 3.36795C11.6533 3.24146 11.8213 3.17188 12.0001 3.17188C12.1788 3.17188 12.3468 3.24146 12.4733 3.36795L20.6296 11.5241C20.6308 11.5253 20.6322 11.5265 20.6334 11.5277C20.8929 11.7891 20.8925 12.2129 20.6322 12.4733Z" fill="#2C4E84"/>
</g>
</svg>
