<svg preserveAspectRatio="none" width="100%" height="100%" overflow="visible" style="display: block;" viewBox="0 0 24 24" fill="none" xmlns="http://www.w3.org/2000/svg">
<g id="fi_6964169">
<path id="Vector" d="M22 8.04492C22 7.07566 21.2114 6.28711 20.2422 6.28711H17.1172V5.02629C17.1172 4.00914 16.2897 3.18164 15.2726 3.18164H8.72746C7.71031 3.18164 6.88281 4.00914 6.88281 5.02629V6.28711H3.75781C2.78855 6.28711 2 7.07566 2 8.04492V10.8182C2 11.335 2.16828 11.9795 2.78125 12.6117V19.0605C2.78125 20.0298 3.5698 20.8184 4.53906 20.8184H19.4609C20.4302 20.8184 21.2188 20.0298 21.2188 19.0605V12.6117C21.8314 11.9799 22 11.3356 22 10.8182V8.04492ZM8.05469 5.02629C8.05469 4.65531 8.35648 4.35352 8.72746 4.35352H15.2726C15.6436 4.35352 15.9454 4.65531 15.9454 5.02629V6.28711H8.05469V5.02629ZM3.17188 8.04492C3.17188 7.72184 3.43473 7.45898 3.75781 7.45898H20.2422C20.5653 7.45898 20.8281 7.72184 20.8281 8.04492V10.8182C20.8281 12.26 18.0622 13.4365 14.0312 13.7447V13.2012C14.0312 12.8776 13.7689 12.6152 13.4453 12.6152H10.5547C10.2311 12.6152 9.96875 12.8776 9.96875 13.2012V13.7445C5.94145 13.4359 3.17188 12.2563 3.17188 10.8182V8.04492ZM12.8594 13.7871V14.5488C12.8594 14.9688 12.5177 15.3105 12.0977 15.3105H11.9023C11.4823 15.3105 11.1406 14.9688 11.1406 14.5488V13.7871H12.8594ZM19.4609 19.6465H4.53906C4.21598 19.6465 3.95312 19.3836 3.95312 19.0605V13.4717C5.69781 14.3657 7.53133 14.7104 10.0053 14.9224C10.1799 15.8104 10.964 16.4824 11.9023 16.4824H12.0977C13.0361 16.4824 13.8202 15.8103 13.9947 14.9222C16.0384 14.7742 17.8832 14.3991 19.2303 13.854C19.5332 13.7314 19.8042 13.6034 20.0469 13.4716V19.0605C20.0469 19.3836 19.784 19.6465 19.4609 19.6465Z" fill="#93949A"/>
</g>
</svg>
