<svg preserveAspectRatio="none" width="100%" height="100%" overflow="visible" style="display: block;" viewBox="0 0 16.6862 20" fill="none" xmlns="http://www.w3.org/2000/svg">
<g id="Group 36699">
<path id="Vector" d="M8.21692 9.63416C9.54048 9.63416 10.6864 9.15946 11.623 8.22286C12.5593 7.28643 13.0342 6.14064 13.0342 4.81693C13.0342 3.49368 12.5594 2.34773 11.6229 1.41099C10.6863 0.474704 9.54032 0 8.21692 0C6.89321 0 5.74742 0.474704 4.81098 1.41114C3.87454 2.34758 3.39969 3.49352 3.39969 4.81693C3.39969 6.14064 3.87454 7.28658 4.81098 8.22302C5.74773 9.1593 6.89367 9.63416 8.21692 9.63416ZM5.63985 2.23985C6.35839 1.52131 7.20129 1.17204 8.21692 1.17204C9.2324 1.17204 10.0755 1.52131 10.7941 2.23985C11.5127 2.95855 11.8621 3.8016 11.8621 4.81693C11.8621 5.83256 11.5127 6.67546 10.7941 7.39415C10.0755 8.11285 9.2324 8.46212 8.21692 8.46212C7.20159 8.46212 6.35869 8.1127 5.63985 7.39415C4.92115 6.67561 4.57172 5.83256 4.57172 4.81693C4.57172 3.8016 4.92115 2.95855 5.63985 2.23985Z" fill="#93949A"/>
<path id="Vector_2" d="M16.6458 15.379C16.6188 14.9893 16.5641 14.5642 16.4837 14.1153C16.4025 13.663 16.298 13.2354 16.1729 12.8446C16.0435 12.4407 15.8679 12.0419 15.6504 11.6596C15.4251 11.2629 15.1602 10.9174 14.8629 10.6332C14.5521 10.3358 14.1715 10.0967 13.7315 9.92226C13.2929 9.74877 12.8069 9.66088 12.2871 9.66088C12.0829 9.66088 11.8855 9.74465 11.5041 9.99291C11.2695 10.146 10.9949 10.323 10.6885 10.5187C10.4266 10.6857 10.0716 10.8421 9.63324 10.9837C9.20554 11.1221 8.77127 11.1923 8.34249 11.1923C7.91402 11.1923 7.47976 11.1221 7.05174 10.9837C6.61381 10.8422 6.25874 10.6858 5.9972 10.5189C5.6937 10.3249 5.41904 10.1479 5.18085 9.99276C4.79984 9.7445 4.60239 9.66073 4.39822 9.66073C3.8782 9.66073 3.39236 9.74877 2.95397 9.92242C2.51421 10.0965 2.1335 10.3356 1.82237 10.6333C1.52513 10.9178 1.26023 11.2631 1.03501 11.6596C0.817877 12.0419 0.642094 12.4406 0.512699 12.8448C0.387728 13.2356 0.283205 13.663 0.202028 14.1153C0.121461 14.5636 0.0669865 14.9888 0.0399783 15.3795C0.0134278 15.7614 0 16.1589 0 16.5605C0 17.6045 0.331881 18.4497 0.986335 19.073C1.6327 19.6881 2.48781 20 3.52801 20H13.1582C14.1981 20 15.0532 19.6881 15.6997 19.073C16.3543 18.4502 16.6862 17.6047 16.6862 16.5603C16.6861 16.1574 16.6725 15.7599 16.6458 15.379ZM14.8916 18.2239C14.4645 18.6304 13.8975 18.828 13.158 18.828H3.52801C2.78841 18.828 2.22139 18.6304 1.79445 18.224C1.37559 17.8253 1.17204 17.281 1.17204 16.5605C1.17204 16.1857 1.1844 15.8157 1.20911 15.4605C1.23322 15.112 1.28251 14.7291 1.3556 14.3223C1.42777 13.9206 1.51963 13.5435 1.62889 13.2022C1.73372 12.8749 1.87669 12.5508 2.054 12.2386C2.22322 11.941 2.41792 11.6857 2.63277 11.48C2.83373 11.2876 3.08703 11.1302 3.38549 11.0121C3.66152 10.9028 3.97174 10.843 4.3085 10.834C4.34955 10.8558 4.42264 10.8975 4.54105 10.9747C4.78198 11.1317 5.0597 11.3108 5.3667 11.5069C5.71278 11.7275 6.15864 11.9268 6.69133 12.0988C7.23592 12.2749 7.79134 12.3643 8.34265 12.3643C8.89395 12.3643 9.44953 12.2749 9.99381 12.0989C10.527 11.9267 10.9727 11.7275 11.3192 11.5066C11.6334 11.3058 11.9033 11.1318 12.1442 10.9747C12.2627 10.8976 12.3357 10.8558 12.3768 10.834C12.7137 10.843 13.0239 10.9028 13.3001 11.0121C13.5984 11.1302 13.8517 11.2878 14.0527 11.48C14.2675 11.6856 14.4622 11.9409 14.6314 12.2387C14.8089 12.5508 14.952 12.875 15.0567 13.202C15.1661 13.5438 15.2581 13.9207 15.3301 14.3222C15.4031 14.7297 15.4525 15.1127 15.4766 15.4606V15.4609C15.5015 15.8148 15.514 16.1847 15.5142 16.5605C15.514 17.2812 15.3105 17.8253 14.8916 18.2239Z" fill="#93949A"/>
</g>
</svg>
