<svg preserveAspectRatio="none" width="100%" height="100%" overflow="visible" style="display: block;" viewBox="0 0 32 32" fill="none" xmlns="http://www.w3.org/2000/svg">
<g id="Group 36697">
<path id="Vector" d="M29.3333 2.13339H2.66666C1.1939 2.13339 0 3.3273 0 4.80006V29.3333C0 30.8061 1.1939 32 2.66666 32H29.3333C30.806 32 31.9999 30.8061 31.9999 29.3333V4.80006C31.9999 3.3273 30.806 2.13339 29.3333 2.13339Z" fill="#BAD4E5"/>
<path id="Vector_2" d="M31.9999 5.33326V23.1572L24.7573 30.3999H2.66666C1.95942 30.3999 1.28114 30.1189 0.781047 29.6188C0.280951 29.1187 0 28.4405 0 27.7332V5.33326C0 4.62601 0.280951 3.94774 0.781047 3.44764C1.28114 2.94755 1.95942 2.6666 2.66666 2.6666H29.3333C30.0405 2.6666 30.7188 2.94755 31.2189 3.44764C31.719 3.94774 31.9999 4.62601 31.9999 5.33326Z" fill="#97C0DD"/>
<path id="Vector_3" d="M31.9999 4.80006V21.5574L23.6906 29.8667H2.66666C1.95942 29.8667 1.28114 29.5857 0.781047 29.0856C0.280951 28.5855 0 27.9073 0 27.2V4.80006C0 4.09281 0.280951 3.41454 0.781047 2.91444C1.28114 2.41434 1.95942 2.13339 2.66666 2.13339H29.3333C30.0405 2.13339 30.7188 2.41434 31.2189 2.91444C31.719 3.41454 31.9999 4.09281 31.9999 4.80006Z" fill="white"/>
<path id="Vector_4" d="M30.3999 21.8666V23.4298L25.5631 28.2665H24V24.1524C24.0001 23.5462 24.241 22.9649 24.6696 22.5362C25.0983 22.1076 25.6796 21.8667 26.2858 21.8666H30.3999Z" fill="#C5DEF3"/>
<path id="Vector_5" d="M30.4004 21.8666V23.2996L25.9668 27.7332H25.3716V23.962C25.3718 23.4063 25.5926 22.8734 25.9855 22.4805C26.3785 22.0875 26.9114 21.8667 27.4671 21.8666H30.4004Z" fill="#D7E9F4"/>
<path id="Vector_6" d="M29.3333 2.13339H2.66666C1.95968 2.13424 1.28189 2.41546 0.781982 2.91538C0.28207 3.41529 0.000846856 4.09307 0 4.80006V10.1334H31.9999V4.80006C31.9991 4.09307 31.7179 3.41529 31.218 2.91538C30.718 2.41546 30.0403 2.13424 29.3333 2.13339Z" fill="#FD4343"/>
<path id="Vector_7" d="M24.5335 7.46678C25.4172 7.46678 26.1335 6.75044 26.1335 5.86678C26.1335 4.98313 25.4172 4.26679 24.5335 4.26679C23.6499 4.26679 22.9335 4.98313 22.9335 5.86678C22.9335 6.75044 23.6499 7.46678 24.5335 7.46678Z" fill="#C92E43"/>
<path id="Vector_8" d="M16 7.46678C16.8836 7.46678 17.6 6.75044 17.6 5.86678C17.6 4.98313 16.8836 4.26679 16 4.26679C15.1163 4.26679 14.4 4.98313 14.4 5.86678C14.4 6.75044 15.1163 7.46678 16 7.46678Z" fill="#C92E43"/>
<path id="Vector_9" d="M8.00018 7.46678C8.88383 7.46678 9.60018 6.75044 9.60018 5.86678C9.60018 4.98313 8.88383 4.26679 8.00018 4.26679C7.11653 4.26679 6.40018 4.98313 6.40018 5.86678C6.40018 6.75044 7.11653 7.46678 8.00018 7.46678Z" fill="#C92E43"/>
<path id="Vector_10" d="M29.3333 32H2.66666C1.95968 31.9992 1.28189 31.7179 0.781982 31.218C0.28207 30.7181 0.000846856 30.0403 0 29.3333V4.80006C0.000846856 4.09307 0.28207 3.41529 0.781982 2.91538C1.28189 2.41546 1.95968 2.13424 2.66666 2.13339H29.3333C30.0403 2.13424 30.718 2.41546 31.218 2.91538C31.7179 3.41529 31.9991 4.09307 31.9999 4.80006V29.3333C31.9991 30.0403 31.7179 30.7181 31.218 31.218C30.718 31.7179 30.0403 31.9992 29.3333 32ZM2.66666 3.20006C2.24232 3.20006 1.83535 3.36863 1.53529 3.66869C1.23523 3.96874 1.06666 4.37571 1.06666 4.80006V29.3333C1.06666 29.7577 1.23523 30.1646 1.53529 30.4647C1.83535 30.7648 2.24232 30.9333 2.66666 30.9333H29.3333C29.7576 30.9333 30.1646 30.7648 30.4646 30.4647C30.7647 30.1646 30.9333 29.7577 30.9333 29.3333V4.80006C30.9333 4.37571 30.7647 3.96874 30.4646 3.66869C30.1646 3.36863 29.7576 3.20006 29.3333 3.20006H2.66666Z" fill="black"/>
<path id="Vector_11" d="M24 29.8667H2.66666C1.95968 29.8658 1.28189 29.5846 0.781982 29.0847C0.28207 28.5848 0.000846856 27.907 0 27.2V4.80006C0.000846856 4.09307 0.28207 3.41529 0.781982 2.91538C1.28189 2.41546 1.95968 2.13424 2.66666 2.13339H29.3333C30.0403 2.13424 30.718 2.41546 31.218 2.91538C31.7179 3.41529 31.9991 4.09307 31.9999 4.80006V21.8667C31.9999 22.0081 31.9437 22.1438 31.8437 22.2438L24.377 29.7104C24.277 29.8104 24.1414 29.8666 24 29.8667ZM2.66666 3.20006C2.24232 3.20006 1.83535 3.36863 1.53529 3.66869C1.23523 3.96874 1.06666 4.37571 1.06666 4.80006V27.2C1.06666 27.6244 1.23523 28.0313 1.53529 28.3314C1.83535 28.6314 2.24232 28.8 2.66666 28.8H23.7791L30.9333 21.6459V4.80006C30.9333 4.37571 30.7647 3.96874 30.4646 3.66869C30.1646 3.36863 29.7576 3.20006 29.3333 3.20006H2.66666Z" fill="black"/>
<path id="Vector_12" d="M31.9999 10.1334H0V4.80006C0.000846856 4.09307 0.28207 3.41529 0.781982 2.91538C1.28189 2.41546 1.95968 2.13424 2.66666 2.13339H29.3333C30.0403 2.13424 30.718 2.41546 31.218 2.91538C31.7179 3.41529 31.9991 4.09307 31.9999 4.80006V10.1334ZM1.06666 9.06671H30.9333V4.80006C30.9333 4.37571 30.7647 3.96874 30.4646 3.66869C30.1646 3.36863 29.7576 3.20006 29.3333 3.20006H2.66666C2.24232 3.20006 1.83535 3.36863 1.53529 3.66869C1.23523 3.96874 1.06666 4.37571 1.06666 4.80006V9.06671Z" fill="black"/>
<path id="Vector_13" d="M24.0001 29.8667C23.8586 29.8667 23.723 29.8105 23.623 29.7105C23.5229 29.6104 23.4667 29.4748 23.4667 29.3333V24C23.4676 23.293 23.7488 22.6153 24.2487 22.1153C24.7486 21.6154 25.4264 21.3342 26.1334 21.3334H31.4667C31.5722 21.3334 31.6753 21.3647 31.763 21.4233C31.8507 21.4819 31.919 21.5652 31.9594 21.6626C31.9997 21.76 32.0103 21.8673 31.9897 21.9707C31.9691 22.0741 31.9184 22.1692 31.8438 22.2438L24.3771 29.7104C24.2772 29.8104 24.1415 29.8666 24.0001 29.8667ZM26.1334 22.4C25.7091 22.4 25.3021 22.5686 25.002 22.8686C24.702 23.1687 24.5334 23.5757 24.5334 24V28.0459L30.1793 22.4H26.1334Z" fill="black"/>
<path id="Vector_14" d="M8.00031 6.39999H7.46698C7.04263 6.39999 6.63567 6.23142 6.33561 5.93136C6.03555 5.6313 5.86698 5.22434 5.86698 4.79999V1.6C5.86698 1.17565 6.03555 0.768686 6.33561 0.468628C6.63567 0.168571 7.04263 0 7.46698 0H8.00031C8.42465 0 8.83162 0.168571 9.13168 0.468628C9.43174 0.768686 9.60031 1.17565 9.60031 1.6V2.13333C9.60031 2.27478 9.54412 2.41043 9.4441 2.51045C9.34408 2.61047 9.20842 2.66666 9.06697 2.66666C8.92552 2.66666 8.78987 2.61047 8.68985 2.51045C8.58983 2.41043 8.53364 2.27478 8.53364 2.13333V1.6C8.53364 1.45855 8.47745 1.32289 8.37743 1.22287C8.27741 1.12285 8.14176 1.06666 8.00031 1.06666H7.46698C7.32553 1.06666 7.18987 1.12285 7.08985 1.22287C6.98983 1.32289 6.93364 1.45855 6.93364 1.6V4.79999C6.93364 4.94144 6.98983 5.07709 7.08985 5.17711C7.18987 5.27713 7.32553 5.33332 7.46698 5.33332H8.00031C8.14176 5.33332 8.27741 5.38951 8.37743 5.48953C8.47745 5.58955 8.53364 5.72521 8.53364 5.86666C8.53364 6.0081 8.47745 6.14376 8.37743 6.24378C8.27741 6.3438 8.14176 6.39999 8.00031 6.39999Z" fill="black"/>
<path id="Vector_15" d="M16.0001 6.39999H15.4668C15.0424 6.39999 14.6355 6.23142 14.3354 5.93136C14.0353 5.6313 13.8668 5.22434 13.8668 4.79999V1.6C13.8668 1.17565 14.0353 0.768686 14.3354 0.468628C14.6355 0.168571 15.0424 0 15.4668 0H16.0001C16.4244 0 16.8314 0.168571 17.1315 0.468628C17.4315 0.768686 17.6001 1.17565 17.6001 1.6V2.13333C17.6001 2.27478 17.5439 2.41043 17.4439 2.51045C17.3439 2.61047 17.2082 2.66666 17.0668 2.66666C16.9253 2.66666 16.7897 2.61047 16.6896 2.51045C16.5896 2.41043 16.5334 2.27478 16.5334 2.13333V1.6C16.5334 1.45855 16.4772 1.32289 16.3772 1.22287C16.2772 1.12285 16.1415 1.06666 16.0001 1.06666H15.4668C15.3253 1.06666 15.1897 1.12285 15.0896 1.22287C14.9896 1.32289 14.9334 1.45855 14.9334 1.6V4.79999C14.9334 4.94144 14.9896 5.07709 15.0896 5.17711C15.1897 5.27713 15.3253 5.33332 15.4668 5.33332H16.0001C16.1415 5.33332 16.2772 5.38951 16.3772 5.48953C16.4772 5.58955 16.5334 5.72521 16.5334 5.86666C16.5334 6.0081 16.4772 6.14376 16.3772 6.24378C16.2772 6.3438 16.1415 6.39999 16.0001 6.39999Z" fill="black"/>
<path id="Vector_16" d="M24.5337 6.39999H24.0003C23.576 6.39999 23.169 6.23142 22.869 5.93136C22.5689 5.6313 22.4003 5.22434 22.4003 4.79999V1.6C22.4003 1.17565 22.5689 0.768686 22.869 0.468628C23.169 0.168571 23.576 0 24.0003 0H24.5337C24.958 0 25.365 0.168571 25.665 0.468628C25.9651 0.768686 26.1337 1.17565 26.1337 1.6V2.13333C26.1337 2.27478 26.0775 2.41043 25.9775 2.51045C25.8774 2.61047 25.7418 2.66666 25.6003 2.66666C25.4589 2.66666 25.3232 2.61047 25.2232 2.51045C25.1232 2.41043 25.067 2.27478 25.067 2.13333V1.6C25.067 1.45855 25.0108 1.32289 24.9108 1.22287C24.8108 1.12285 24.6751 1.06666 24.5337 1.06666H24.0003C23.8589 1.06666 23.7232 1.12285 23.6232 1.22287C23.5232 1.32289 23.467 1.45855 23.467 1.6V4.79999C23.467 4.94144 23.5232 5.07709 23.6232 5.17711C23.7232 5.27713 23.8589 5.33332 24.0003 5.33332H24.5337C24.6751 5.33332 24.8108 5.38951 24.9108 5.48953C25.0108 5.58955 25.067 5.72521 25.067 5.86666C25.067 6.0081 25.0108 6.14376 24.9108 6.24378C24.8108 6.3438 24.6751 6.39999 24.5337 6.39999Z" fill="black"/>
<path id="Vector_17" d="M6.93371 22.4003H3.73372C3.43917 22.4003 3.20038 22.6391 3.20038 22.9337V26.1337C3.20038 26.4282 3.43917 26.667 3.73372 26.667H6.93371C7.22826 26.667 7.46704 26.4282 7.46704 26.1337V22.9337C7.46704 22.6391 7.22826 22.4003 6.93371 22.4003Z" fill="#BAD4E5"/>
<path id="Vector_18" d="M12.2669 22.4003H9.06691C8.77236 22.4003 8.53358 22.6391 8.53358 22.9337V26.1337C8.53358 26.4282 8.77236 26.667 9.06691 26.667H12.2669C12.5615 26.667 12.8002 26.4282 12.8002 26.1337V22.9337C12.8002 22.6391 12.5615 22.4003 12.2669 22.4003Z" fill="#BAD4E5"/>
<path id="Vector_19" d="M17.6001 22.4003H14.4001C14.1055 22.4003 13.8668 22.6391 13.8668 22.9337V26.1337C13.8668 26.4282 14.1055 26.667 14.4001 26.667H17.6001C17.8946 26.667 18.1334 26.4282 18.1334 26.1337V22.9337C18.1334 22.6391 17.8946 22.4003 17.6001 22.4003Z" fill="#BAD4E5"/>
<path id="Vector_20" d="M6.93371 17.0666H3.73372C3.43917 17.0666 3.20038 17.3053 3.20038 17.5999V20.7999C3.20038 21.0944 3.43917 21.3332 3.73372 21.3332H6.93371C7.22826 21.3332 7.46704 21.0944 7.46704 20.7999V17.5999C7.46704 17.3053 7.22826 17.0666 6.93371 17.0666Z" fill="#5ED3F2"/>
<g id="Group">
<path id="Vector_21" d="M12.2668 17.0665H9.06679C8.77224 17.0665 8.53346 17.3053 8.53346 17.5999V20.7999C8.53346 21.0944 8.77224 21.3332 9.06679 21.3332H12.2668C12.5613 21.3332 12.8001 21.0944 12.8001 20.7999V17.5999C12.8001 17.3053 12.5613 17.0665 12.2668 17.0665Z" fill="#BAD4E5"/>
<path id="Vector_22" d="M17.6 17.0665H14.4C14.1054 17.0665 13.8667 17.3053 13.8667 17.5999V20.7999C13.8667 21.0944 14.1054 21.3332 14.4 21.3332H17.6C17.8945 21.3332 18.1333 21.0944 18.1333 20.7999V17.5999C18.1333 17.3053 17.8945 17.0665 17.6 17.0665Z" fill="#BAD4E5"/>
<path id="Vector_23" d="M22.9332 17.0665H19.7332C19.4386 17.0665 19.1998 17.3053 19.1998 17.5999V20.7999C19.1998 21.0944 19.4386 21.3332 19.7332 21.3332H22.9332C23.2277 21.3332 23.4665 21.0944 23.4665 20.7999V17.5999C23.4665 17.3053 23.2277 17.0665 22.9332 17.0665Z" fill="#BAD4E5"/>
<path id="Vector_24" d="M17.6 11.7334H14.4C14.1054 11.7334 13.8667 11.9721 13.8667 12.2667V15.4667C13.8667 15.7612 14.1054 16 14.4 16H17.6C17.8945 16 18.1333 15.7612 18.1333 15.4667V12.2667C18.1333 11.9721 17.8945 11.7334 17.6 11.7334Z" fill="#BAD4E5"/>
</g>
<path id="Vector_25" d="M22.9333 11.7334H19.7333C19.4387 11.7334 19.2 11.9722 19.2 12.2667V15.4667C19.2 15.7613 19.4387 16 19.7333 16H22.9333C23.2278 16 23.4666 15.7613 23.4666 15.4667V12.2667C23.4666 11.9722 23.2278 11.7334 22.9333 11.7334Z" fill="#67AAE6"/>
<path id="Vector_26" d="M28.2671 11.7334H25.0671C24.7725 11.7334 24.5337 11.9722 24.5337 12.2667V15.4667C24.5337 15.7613 24.7725 16 25.0671 16H28.2671C28.5616 16 28.8004 15.7613 28.8004 15.4667V12.2667C28.8004 11.9722 28.5616 11.7334 28.2671 11.7334Z" fill="#67AAE6"/>
<path id="Vector_27" d="M6.93371 26.667H3.73372C3.59227 26.667 3.45661 26.6108 3.35659 26.5108C3.25657 26.4108 3.20038 26.2751 3.20038 26.1337V22.9337C3.20038 22.7922 3.25657 22.6566 3.35659 22.5566C3.45661 22.4565 3.59227 22.4003 3.73372 22.4003H6.93371C7.07516 22.4003 7.21081 22.4565 7.31083 22.5566C7.41085 22.6566 7.46704 22.7922 7.46704 22.9337V26.1337C7.46704 26.2751 7.41085 26.4108 7.31083 26.5108C7.21081 26.6108 7.07516 26.667 6.93371 26.667ZM4.26705 25.6003H6.40038V23.467H4.26705V25.6003Z" fill="black"/>
<path id="Vector_28" d="M12.2669 26.667H9.06691C8.92546 26.667 8.7898 26.6108 8.68978 26.5108C8.58977 26.4108 8.53358 26.2751 8.53358 26.1337V22.9337C8.53358 22.7922 8.58977 22.6566 8.68978 22.5566C8.7898 22.4565 8.92546 22.4003 9.06691 22.4003H12.2669C12.4084 22.4003 12.544 22.4565 12.644 22.5566C12.744 22.6566 12.8002 22.7922 12.8002 22.9337V26.1337C12.8002 26.2751 12.744 26.4108 12.644 26.5108C12.544 26.6108 12.4084 26.667 12.2669 26.667ZM9.60024 25.6003H11.7336V23.467H9.60024V25.6003Z" fill="black"/>
<path id="Vector_29" d="M17.6001 26.667H14.4001C14.2587 26.667 14.123 26.6108 14.023 26.5108C13.923 26.4108 13.8668 26.2751 13.8668 26.1337V22.9337C13.8668 22.7922 13.923 22.6566 14.023 22.5566C14.123 22.4565 14.2587 22.4003 14.4001 22.4003H17.6001C17.7415 22.4003 17.8772 22.4565 17.9772 22.5566C18.0772 22.6566 18.1334 22.7922 18.1334 22.9337V26.1337C18.1334 26.2751 18.0772 26.4108 17.9772 26.5108C17.8772 26.6108 17.7415 26.667 17.6001 26.667ZM14.9334 25.6003H17.0668V23.467H14.9334V25.6003Z" fill="black"/>
<path id="Vector_30" d="M6.93371 21.3332H3.73372C3.59227 21.3332 3.45661 21.277 3.35659 21.177C3.25657 21.077 3.20038 20.9413 3.20038 20.7999V17.5999C3.20038 17.4585 3.25657 17.3228 3.35659 17.2228C3.45661 17.1228 3.59227 17.0666 3.73372 17.0666H6.93371C7.07516 17.0666 7.21081 17.1228 7.31083 17.2228C7.41085 17.3228 7.46704 17.4585 7.46704 17.5999V20.7999C7.46704 20.9413 7.41085 21.077 7.31083 21.177C7.21081 21.277 7.07516 21.3332 6.93371 21.3332ZM4.26705 20.2666H6.40038V18.1332H4.26705V20.2666Z" fill="black"/>
<path id="Vector_31" d="M12.2669 21.3332H9.06691C8.92546 21.3332 8.7898 21.277 8.68978 21.177C8.58977 21.077 8.53358 20.9413 8.53358 20.7999V17.5999C8.53358 17.4585 8.58977 17.3228 8.68978 17.2228C8.7898 17.1228 8.92546 17.0666 9.06691 17.0666H12.2669C12.4084 17.0666 12.544 17.1228 12.644 17.2228C12.744 17.3228 12.8002 17.4585 12.8002 17.5999V20.7999C12.8002 20.9413 12.744 21.077 12.644 21.177C12.544 21.277 12.4084 21.3332 12.2669 21.3332ZM9.60024 20.2666H11.7336V18.1332H9.60024V20.2666Z" fill="black"/>
<path id="Vector_32" d="M17.6001 21.3332H14.4001C14.2587 21.3332 14.123 21.277 14.023 21.177C13.923 21.077 13.8668 20.9413 13.8668 20.7999V17.5999C13.8668 17.4585 13.923 17.3228 14.023 17.2228C14.123 17.1228 14.2587 17.0666 14.4001 17.0666H17.6001C17.7415 17.0666 17.8772 17.1228 17.9772 17.2228C18.0772 17.3228 18.1334 17.4585 18.1334 17.5999V20.7999C18.1334 20.9413 18.0772 21.077 17.9772 21.177C17.8772 21.277 17.7415 21.3332 17.6001 21.3332ZM14.9334 20.2666H17.0668V18.1332H14.9334V20.2666Z" fill="black"/>
<path id="Vector_33" d="M22.9333 21.3332H19.7333C19.5918 21.3332 19.4562 21.277 19.3562 21.177C19.2562 21.077 19.2 20.9413 19.2 20.7999V17.5999C19.2 17.4585 19.2562 17.3228 19.3562 17.2228C19.4562 17.1228 19.5918 17.0666 19.7333 17.0666H22.9333C23.0747 17.0666 23.2104 17.1228 23.3104 17.2228C23.4104 17.3228 23.4666 17.4585 23.4666 17.5999V20.7999C23.4666 20.9413 23.4104 21.077 23.3104 21.177C23.2104 21.277 23.0747 21.3332 22.9333 21.3332ZM20.2666 20.2666H22.4V18.1332H20.2666V20.2666Z" fill="black"/>
<path id="Vector_34" d="M17.6001 16H14.4001C14.2587 16 14.123 15.9438 14.023 15.8438C13.923 15.7438 13.8668 15.6081 13.8668 15.4667V12.2667C13.8668 12.1253 13.923 11.9896 14.023 11.8896C14.123 11.7896 14.2587 11.7334 14.4001 11.7334H17.6001C17.7415 11.7334 17.8772 11.7896 17.9772 11.8896C18.0772 11.9896 18.1334 12.1253 18.1334 12.2667V15.4667C18.1334 15.6081 18.0772 15.7438 17.9772 15.8438C17.8772 15.9438 17.7415 16 17.6001 16ZM14.9334 14.9334H17.0668V12.8H14.9334V14.9334Z" fill="black"/>
<path id="Vector_35" d="M22.9333 16H19.7333C19.5918 16 19.4562 15.9438 19.3562 15.8438C19.2562 15.7438 19.2 15.6081 19.2 15.4667V12.2667C19.2 12.1253 19.2562 11.9896 19.3562 11.8896C19.4562 11.7896 19.5918 11.7334 19.7333 11.7334H22.9333C23.0747 11.7334 23.2104 11.7896 23.3104 11.8896C23.4104 11.9896 23.4666 12.1253 23.4666 12.2667V15.4667C23.4666 15.6081 23.4104 15.7438 23.3104 15.8438C23.2104 15.9438 23.0747 16 22.9333 16ZM20.2666 14.9334H22.4V12.8H20.2666V14.9334Z" fill="black"/>
<path id="Vector_36" d="M28.2671 16H25.0671C24.9256 16 24.79 15.9438 24.6899 15.8438C24.5899 15.7438 24.5337 15.6081 24.5337 15.4667V12.2667C24.5337 12.1253 24.5899 11.9896 24.6899 11.8896C24.79 11.7896 24.9256 11.7334 25.0671 11.7334H28.2671C28.4085 11.7334 28.5442 11.7896 28.6442 11.8896C28.7442 11.9896 28.8004 12.1253 28.8004 12.2667V15.4667C28.8004 15.6081 28.7442 15.7438 28.6442 15.8438C28.5442 15.9438 28.4085 16 28.2671 16ZM25.6004 14.9334H27.7337V12.8H25.6004V14.9334Z" fill="black"/>
</g>
</svg>
