<svg preserveAspectRatio="none" width="100%" height="100%" overflow="visible" style="display: block;" viewBox="0 0 30.7484 30.7487" fill="none" xmlns="http://www.w3.org/2000/svg">
<g id="Group">
<path id="Vector" d="M24.6097 1.38031H28.6258V9.33108H24.6097V1.38031Z" fill="#D46B5C"/>
<g id="Group_2">
<path id="Vector_2" d="M28.7385 14.041C28.3192 14.041 27.8963 13.9102 27.535 13.6392L15.3742 4.51866L3.21342 13.6393C2.32617 14.3047 1.06731 14.125 0.401765 13.2376C-0.263717 12.3503 -0.0838708 11.0915 0.803439 10.4259L14.1692 0.401643C14.8832 -0.133881 15.8651 -0.133881 16.5792 0.401643L29.9449 10.4259C30.8322 11.0914 31.0121 12.3502 30.3466 13.2376C29.9521 13.7636 29.349 14.041 28.7385 14.041Z" fill="#FD7DA0"/>
</g>
<g id="Group_3">
<path id="Vector_3" d="M28.7385 14.041C28.3192 14.041 27.8963 13.9102 27.535 13.6392L15.3742 4.51866L3.21342 13.6393C2.32617 14.3047 1.06731 14.125 0.401765 13.2376C-0.263717 12.3503 -0.0838708 11.0915 0.803439 10.4259L14.1692 0.401643C14.8832 -0.133881 15.8651 -0.133881 16.5792 0.401643L29.9449 10.4259C30.8322 11.0914 31.0121 12.3502 30.3466 13.2376C29.9521 13.7636 29.349 14.041 28.7385 14.041Z" fill="#FD7DA0"/>
</g>
<g id="Group_4">
<path id="Vector_4" d="M19.073 30.748V28.3581C19.073 25.5186 21.4056 23.2167 24.2829 23.2167C27.1603 23.2167 29.4929 25.5186 29.4929 28.3581V30.748H19.073Z" fill="#B1D952"/>
<path id="Vector_5" d="M24.3247 26.2468C24.3247 25.1617 24.6357 24.1494 25.1731 23.2936C24.8836 23.2444 24.5866 23.2174 24.2829 23.2174C21.4056 23.2174 19.073 25.5192 19.073 28.3587V30.7487H26.6202C25.2292 29.7376 24.3247 28.098 24.3247 26.2468Z" fill="#91B706"/>
<path id="Vector_6" d="M24.2831 23.217C25.9062 23.217 27.222 21.9185 27.222 20.3167C27.222 18.715 25.9062 17.4165 24.2831 17.4165C22.6599 17.4165 21.3441 18.715 21.3441 20.3167C21.3441 21.9185 22.6599 23.217 24.2831 23.217Z" fill="#D46B5C"/>
<path id="Vector_7" d="M11.6748 30.748V28.3581C11.6748 25.5186 9.34221 23.2167 6.46485 23.2167C3.58749 23.2167 1.25488 25.5186 1.25488 28.3581V30.748H11.6748Z" fill="#FDCB50"/>
<path id="Vector_8" d="M6.50658 26.2468C6.50658 25.1617 6.81764 24.1494 7.35498 23.2936C7.06557 23.2444 6.76851 23.2174 6.46485 23.2174C3.58749 23.2174 1.25488 25.5192 1.25488 28.3587V30.7487H8.80217C7.41115 29.7376 6.50658 28.098 6.50658 26.2468Z" fill="#FD8F01"/>
<path id="Vector_9" d="M6.46499 23.217C8.08814 23.217 9.40397 21.9185 9.40397 20.3167C9.40397 18.715 8.08814 17.4165 6.46499 17.4165C4.84184 17.4165 3.52601 18.715 3.52601 20.3167C3.52601 21.9185 4.84184 23.217 6.46499 23.217Z" fill="#FDE0BE"/>
<g id="Group_5">
<path id="Vector_10" d="M19.5099 30.7479V29.5552C19.5099 27.3013 17.6583 25.4741 15.3743 25.4741C13.0902 25.4741 11.2387 27.3013 11.2387 29.5552V30.7479H19.5099Z" fill="#FD7DA0"/>
<path id="Vector_11" d="M15.3743 25.4744C16.8176 25.4744 17.9876 24.3197 17.9876 22.8955C17.9876 21.4712 16.8176 20.3165 15.3743 20.3165C13.931 20.3165 12.761 21.4712 12.761 22.8955C12.761 24.3197 13.931 25.4744 15.3743 25.4744Z" fill="#FDBEB9"/>
</g>
</g>
</g>
</svg>
