<svg preserveAspectRatio="none" width="100%" height="100%" overflow="visible" style="display: block;" viewBox="0 0 32.0042 32" fill="none" xmlns="http://www.w3.org/2000/svg">
<g id="Group">
<path id="Vector" d="M31.9772 12.284C31.8777 11.587 31.5126 10.9705 30.9494 10.5481L29.8812 9.74697V2.63217H30.195C30.5416 2.63217 30.8225 2.35117 30.8225 2.00465C30.8225 1.65814 30.5416 1.37713 30.195 1.37713H24.2963C23.9497 1.37713 23.6688 1.65814 23.6688 2.00465C23.6688 2.35117 23.9497 2.63217 24.2963 2.63217H24.6101V5.79354L17.5836 0.523773C16.6525 -0.174591 15.3518 -0.174591 14.4206 0.523773L1.05482 10.5481C0.491556 10.9705 0.126591 11.587 0.0270043 12.284C-0.0725828 12.9809 0.105256 13.675 0.527701 14.2383C0.950146 14.8016 1.56668 15.1665 2.2636 15.2661C2.39011 15.2842 2.51637 15.2932 2.64193 15.2932C3.20808 15.2932 3.75684 15.1113 4.21788 14.7655L16.0021 5.9272L27.7863 14.7654C28.2462 15.1104 28.7926 15.2927 29.3663 15.2927C30.1924 15.2927 30.9812 14.8985 31.4764 14.2382C31.8989 13.675 32.0768 12.9809 31.9772 12.284ZM25.865 2.63217H28.6261V8.80569L25.865 6.73488V2.63217ZM30.4725 13.4852C30.2092 13.8362 29.806 14.0376 29.3663 14.0376C29.0663 14.0376 28.7804 13.9421 28.5394 13.7614L16.3786 4.64079C16.267 4.55714 16.1346 4.51529 16.0021 4.51529C15.8696 4.51529 15.7372 4.55714 15.6256 4.64079L3.46486 13.7614C2.85573 14.2182 1.98856 14.0943 1.53173 13.4853C1.31047 13.1902 1.21728 12.8266 1.26943 12.4615C1.32157 12.0965 1.51278 11.7735 1.80784 11.5522L15.1736 1.5278C15.6614 1.16202 16.3428 1.1619 16.8306 1.5278L30.1963 11.5521C30.4914 11.7734 30.6826 12.0964 30.7347 12.4615C30.7869 12.8266 30.6938 13.1902 30.4725 13.4852Z" fill="#010101"/>
<path id="Vector_2" d="M27.1746 23.665C27.9696 23.0175 28.4775 22.0368 28.4775 20.9409C28.4775 18.9956 26.8776 17.4131 24.9111 17.4131C22.9446 17.4131 21.3447 18.9956 21.3447 20.9409C21.3447 22.0367 21.8525 23.0175 22.6476 23.665C21.1818 24.2767 20.0199 25.4639 19.4526 26.9383C19.0635 26.5357 18.6055 26.204 18.1027 25.9585C18.7996 25.3699 19.2428 24.4954 19.2428 23.5198C19.2428 21.7517 17.789 20.3133 16.002 20.3133C14.215 20.3133 12.7611 21.7517 12.7611 23.5198C12.7611 24.4954 13.2043 25.3699 13.9012 25.9585C13.3983 26.2039 12.9404 26.5357 12.5513 26.9383C11.984 25.4639 10.8221 24.2767 9.35625 23.665C10.1513 23.0175 10.6592 22.0368 10.6592 20.9409C10.6592 18.9956 9.05931 17.4131 7.09279 17.4131C5.12628 17.4131 3.52636 18.9956 3.52636 20.9409C3.52636 22.0367 4.03421 23.0175 4.82934 23.665C2.73148 24.5405 1.25537 26.5943 1.25537 28.9825V31.3725C1.25537 31.719 1.53631 32 1.88289 32H30.1212C30.4678 32 30.7487 31.719 30.7487 31.3725V28.9825C30.7485 26.5943 29.2724 24.5405 27.1746 23.665ZM4.78121 20.9409C4.78121 19.6877 5.81812 18.6682 7.0926 18.6682C8.36709 18.6682 9.404 19.6877 9.404 20.9409C9.404 22.1941 8.36709 23.2137 7.0926 23.2137C5.81812 23.2137 4.78121 22.1941 4.78121 20.9409ZM11.6751 30.745H2.51022V28.9825C2.51022 26.4936 4.5659 24.4686 7.09267 24.4686C9.61943 24.4686 11.6751 26.4936 11.6751 28.9825V30.745ZM16.0019 21.5684C17.0968 21.5684 17.9876 22.4438 17.9876 23.5199C17.9876 24.5958 17.0968 25.4713 16.0019 25.4713C14.9069 25.4713 14.016 24.5959 14.016 23.5199C14.0161 22.4438 14.9069 21.5684 16.0019 21.5684ZM19.0735 28.9825V30.745H12.9302V28.9825C12.9302 28.8343 12.9244 28.6875 12.9133 28.5421C13.5218 27.4338 14.7156 26.7263 16.0019 26.7263C17.2881 26.7263 18.4819 27.4338 19.0904 28.5421C19.0793 28.6875 19.0735 28.8343 19.0735 28.9825ZM22.5996 20.9409C22.5996 19.6877 23.6365 18.6682 24.911 18.6682C26.1855 18.6682 27.2224 19.6877 27.2224 20.9409C27.2224 22.1941 26.1855 23.2137 24.911 23.2137C23.6365 23.2137 22.5996 22.1941 22.5996 20.9409ZM29.4935 30.745H20.3286V28.9825C20.3286 26.4936 22.3843 24.4686 24.911 24.4686C27.4378 24.4686 29.4935 26.4936 29.4935 28.9825V30.745Z" fill="#010101"/>
</g>
</svg>
