<svg preserveAspectRatio="none" width="100%" height="100%" overflow="visible" style="display: block;" viewBox="0 0 30.3398 31.0593" fill="none" xmlns="http://www.w3.org/2000/svg">
<g id="Group">
<g id="Group_2">
<path id="Vector" d="M29.867 23.0718V26.8365C29.867 27.0953 29.66 27.3071 29.3964 27.3071H26.4176V21.66H28.4553C29.0106 22.2106 29.3164 22.5212 29.867 23.0718Z" fill="#3C97D3"/>
</g>
<g id="Group_3">
<path id="Vector_2" d="M22.402 5.01694C22.4048 5.02281 22.4083 5.02818 22.4112 5.03396H22.3928C22.3962 5.02849 22.3986 5.02245 22.402 5.01694Z" fill="#C9E8E7"/>
</g>
<path id="Vector_3" d="M1.83965 2.02894V29.031C1.83965 29.8913 2.53711 30.5888 3.39746 30.5888H6.36234V0.471129H3.39746C2.53711 0.471129 1.83965 1.16859 1.83965 2.02894Z" fill="#72B844"/>
<g id="Group_4">
<path id="Vector_4" d="M26.4176 2.03651V28.94C26.4176 29.8483 25.6788 30.5871 24.7705 30.5871H6.36113V0.478833H24.86C25.7211 0.478833 26.4176 1.18003 26.4176 2.03651Z" fill="#96C93D"/>
</g>
<g id="Group_5">
<path id="Vector_5" d="M26.4176 2.03651V28.94C26.4176 29.8483 25.6788 30.5871 24.7705 30.5871H6.36113V0.478833H24.86C25.7211 0.478833 26.4176 1.18003 26.4176 2.03651Z" fill="#96C93D"/>
</g>
<g id="Group_6">
<path id="Vector_6" d="M26.4176 2.03651V28.94C26.4176 29.8483 25.6788 30.5871 24.7705 30.5871H6.36584C27.4247 25.34 24.1447 1.06239 24.0647 0.478828H24.86C25.7211 0.478833 26.4176 1.18003 26.4176 2.03651Z" fill="#72B844"/>
</g>
<g id="Group_7">
<path id="Vector_7" d="M28.4574 16.0128H26.4182V21.6598H29.3986C29.6585 21.6598 29.8692 21.4491 29.8692 21.1892V17.4245C29.3179 16.8732 29.0087 16.5641 28.4574 16.0128Z" fill="#FAC41D"/>
</g>
<g id="Group_8">
<path id="Vector_8" d="M29.867 17.4245V21.1892C29.867 21.4481 29.66 21.6598 29.3964 21.6598H26.4176V21.5893C29.1753 20.4881 29.867 17.4245 29.867 17.4245Z" fill="#F4A01E"/>
</g>
<g id="Group_9">
<path id="Vector_9" d="M28.4574 21.6598H26.4182V27.3069H29.3986C29.6585 27.3069 29.8692 27.0962 29.8692 26.8363V23.0716C29.3179 22.5203 29.0087 22.2112 28.4574 21.6598Z" fill="#3C97D3"/>
</g>
<g id="Group_10">
<path id="Vector_10" d="M29.867 23.0718V26.8365C29.867 27.0953 29.66 27.3071 29.3964 27.3071H26.4176V27.2365C29.1753 26.1353 29.867 23.0718 29.867 23.0718Z" fill="#3779BE"/>
</g>
<g id="Group_11">
<path id="Vector_11" d="M22.0044 15.6406C22.0044 16.9817 20.9126 18.0735 19.5667 18.0735C14.7103 18.0735 10.7762 14.1394 10.7762 9.28293C10.7762 7.93705 11.8679 6.84528 13.2091 6.84528C13.4538 6.84528 13.6891 6.88294 13.9103 6.94883L14.7526 11.17C14.5079 11.3723 14.2209 11.5229 13.9103 11.6171C14.2209 12.3606 14.6726 13.0335 15.2326 13.5982L15.2373 13.6029V13.6123H15.2467L15.2515 13.6171C15.8161 14.1771 16.4844 14.6288 17.2326 14.9394C17.3267 14.6288 17.482 14.3418 17.6797 14.0971L21.9009 14.9394C21.9667 15.1606 22.0044 15.3959 22.0044 15.6406Z" fill="white"/>
</g>
<g id="Group_12">
<path id="Vector_12" d="M22.0035 15.6553C21.9941 16.9918 20.907 18.0741 19.5658 18.0741C15.7917 18.0741 12.5776 15.7024 11.3306 12.3659C11.3305 12.3659 15.7023 17.7118 22.0035 15.6553Z" fill="#DFE1E6"/>
</g>
<g id="Group_13">
<path id="Vector_13" d="M30.3398 21.1893V17.4246C30.3398 17.2999 30.2902 17.1801 30.202 17.0919L28.7902 15.6801C28.702 15.5919 28.5823 15.5423 28.4575 15.5423H26.8909V2.02826C26.8909 0.909929 25.9809 0 24.8626 0C24.6323 4.70588e-06 5.85643 0.000404687 3.39752 0.000461158C2.27895 0.000461158 1.36902 0.910386 1.36902 2.02896V4.60639H0.470588C0.210706 4.60639 0 4.8171 0 5.07698C0 5.33686 0.210706 5.54757 0.470588 5.54757H1.36903V8.78746H0.470588C0.210706 8.78746 0 8.99816 0 9.25805C0 9.51793 0.210706 9.72864 0.470588 9.72864H1.36903V12.9688H0.470588C0.210706 12.9688 0 13.1795 0 13.4393C0 13.6992 0.210706 13.9099 0.470588 13.9099H1.36903V17.15H0.470588C0.210706 17.15 0 17.3608 0 17.6206C0 17.8805 0.210706 18.0912 0.470588 18.0912H1.36903V21.3311H0.470588C0.210706 21.3311 0 21.5418 0 21.8017C0 22.0616 0.210706 22.2723 0.470588 22.2723H1.36903V25.5124H0.470588C0.210706 25.5124 0 25.7231 0 25.983C0 26.2429 0.210706 26.4536 0.470588 26.4536H1.36903V29.031C1.36903 30.1494 2.27895 31.0593 3.39752 31.0593C6.00267 31.0592 24.7223 31.0588 24.8626 31.0588C25.9809 31.0588 26.8909 30.1489 26.8909 29.0306V27.7776H29.3987C29.9177 27.7776 30.3398 27.3555 30.3398 26.8364V23.0717C30.3398 22.9469 30.2902 22.8272 30.202 22.739L29.5756 22.1126C30.0102 22.0295 30.3398 21.6478 30.3398 21.1893ZM28.2626 16.4835L29.3987 17.6195L29.3994 21.1893H28.4575H26.8909V16.4835H28.2626ZM5.89177 30.1181H3.39752C2.79802 30.1181 2.3102 29.6305 2.3102 29.031V26.4536H4.10546C4.36535 26.4536 4.57605 26.2429 4.57605 25.983C4.57605 25.7231 4.36535 25.5124 4.10546 25.5124H2.3102V22.2723H4.10547C4.36535 22.2723 4.57606 22.0616 4.57606 21.8017C4.57606 21.5418 4.36535 21.3311 4.10547 21.3311H2.3102V18.0912H4.10547C4.36535 18.0912 4.57606 17.8805 4.57606 17.6206C4.57606 17.3608 4.36535 17.15 4.10547 17.15H2.3102V13.9099H4.10547C4.36535 13.9099 4.57606 13.6992 4.57606 13.4393C4.57606 13.1795 4.36535 12.9687 4.10547 12.9687H2.3102V9.72863H4.10547C4.36535 9.72863 4.57606 9.51792 4.57606 9.25804C4.57606 8.99816 4.36535 8.78745 4.10547 8.78745H2.3102V5.54756H4.10547C4.36535 5.54756 4.57606 5.33686 4.57606 5.07697C4.57606 4.81709 4.36535 4.60639 4.10547 4.60639H2.3102V2.02895C2.3102 1.42945 2.79802 0.941633 3.39752 0.941633H5.89177V30.1181ZM24.8626 30.1176H6.83433V0.941176H24.8626C25.4621 0.941176 25.9497 1.42877 25.9497 2.02826C25.9488 26.6285 25.9453 13.5075 25.9497 29.0306C25.9497 29.6301 25.4621 30.1176 24.8626 30.1176ZM26.8909 26.8364V22.1305H28.2626L29.3987 23.2665L29.3994 26.8364H26.8909Z" fill="#010101"/>
<path id="Vector_14" d="M19.5666 18.5441C21.1703 18.5441 22.475 17.2417 22.475 15.6406C22.475 15.361 22.4336 15.08 22.352 14.8054C22.3024 14.6381 22.1643 14.512 21.9931 14.4779L17.7718 13.6356C17.5997 13.6009 17.4235 13.6652 17.3137 13.8012C17.1877 13.957 17.0772 14.1271 16.9848 14.3058C16.471 14.0404 16.0002 13.6969 15.5793 13.2794C15.5772 13.2771 15.5749 13.275 15.5726 13.2728C15.5705 13.2707 15.5687 13.2688 15.5666 13.2668C15.1546 12.8513 14.8123 12.3817 14.5455 11.8663C14.7268 11.7732 14.8961 11.6618 15.0524 11.5329C15.1859 11.4226 15.2479 11.2477 15.2139 11.0779L14.3716 6.85662C14.3375 6.68566 14.2114 6.54733 14.0443 6.4977C13.77 6.41613 13.489 6.37477 13.2091 6.37477C11.608 6.37477 10.3056 7.67922 10.3056 9.28286C10.3056 14.3895 14.46 18.5441 19.5666 18.5441ZM13.2091 7.31595C13.3086 7.31595 13.4085 7.32376 13.5083 7.33938L14.2316 10.9642C14.0914 11.0492 13.9382 11.1167 13.7739 11.1666C13.6464 11.2052 13.5414 11.2957 13.4846 11.4161C13.4276 11.5368 13.4246 11.6756 13.4759 11.7985C13.8024 12.58 14.2675 13.2831 14.8642 13.8948C15.1212 14.2232 16.0582 14.9615 17.0522 15.3741C17.3069 15.4792 17.6013 15.3445 17.6829 15.0761C17.7309 14.9175 17.8005 14.7626 17.8876 14.6183L21.5103 15.3412C21.526 15.4412 21.5338 15.5411 21.5338 15.6406C21.5338 16.7227 20.6514 17.6029 19.5666 17.6029C14.9791 17.6029 11.2468 13.8706 11.2468 9.28286C11.2468 8.1983 12.1271 7.31595 13.2091 7.31595Z" fill="#010101"/>
<g id="Group_14">
<path id="Vector_15" d="M10.5078 21.8617H22.2725C22.5324 21.8617 22.7431 21.651 22.7431 21.3911C22.7431 21.1312 22.5324 20.9205 22.2725 20.9205H10.5078C10.2479 20.9205 10.0372 21.1312 10.0372 21.3911C10.0372 21.651 10.2479 21.8617 10.5078 21.8617Z" fill="#010101"/>
<path id="Vector_16" d="M22.2725 23.744H10.5078C10.2479 23.744 10.0372 23.9547 10.0372 24.2146C10.0372 24.4745 10.2479 24.6852 10.5078 24.6852H22.2725C22.5324 24.6852 22.7431 24.4745 22.7431 24.2146C22.7431 23.9547 22.5324 23.744 22.2725 23.744Z" fill="#010101"/>
</g>
</g>
<g id="Group_15">
<path id="Vector_17" d="M22.0044 5.62615C21.8095 5.62615 21.6514 5.46806 21.6514 5.27321V4.00138C21.6514 3.46806 21.2174 3.03401 20.6841 3.03401H18.1689C17.974 3.03401 17.8159 2.87592 17.8159 2.68107C17.8159 2.48622 17.974 2.32813 18.1689 2.32813H20.6841C21.6066 2.32813 22.3573 3.07881 22.3573 4.00138V5.27321C22.3573 5.46806 22.1992 5.62615 22.0044 5.62615Z" fill="white"/>
</g>
<g id="Group_16">
<path id="Vector_18" d="M22.1213 9.37017C21.9265 9.37017 21.7684 9.21209 21.7684 9.01723V7.5779C21.7684 7.38304 21.9265 7.22496 22.1213 7.22496C22.3162 7.22496 22.4743 7.38304 22.4743 7.5779V9.01723C22.4743 9.21209 22.3162 9.37017 22.1213 9.37017Z" fill="white"/>
</g>
</g>
</svg>
