<svg preserveAspectRatio="none" width="100%" height="100%" overflow="visible" style="display: block;" viewBox="0 0 32 31.9871" fill="none" xmlns="http://www.w3.org/2000/svg">
<g id="Group">
<path id="Vector" d="M9.80661 16.5038L11.8712 18.5683L13.9357 16.5038L20.6383 17.6207C22.132 17.87 23.2262 19.1619 23.2262 20.6757V31.4718H0.516137V20.6757C0.516137 19.1619 1.61035 17.87 3.10405 17.6212L9.80661 16.5038Z" fill="#E39854"/>
<path id="Vector_2" d="M30.9682 31.4718H16.5164C16.2315 31.4718 16.0003 31.2405 16.0003 30.9556V20.6329C16.0003 20.348 16.2315 20.1168 16.5164 20.1168H30.9682C31.2531 20.1168 31.4844 20.348 31.4844 20.6329V30.9556C31.4844 31.2405 31.2531 31.4718 30.9682 31.4718Z" fill="#606060"/>
<path id="Vector_3" d="M16.0003 29.2137C16.0343 29.2142 16.0674 29.2188 16.1019 29.2188C21.3314 29.2188 25.6242 25.2219 26.1011 20.1168H16.5164C16.2315 20.1168 16.0003 20.348 16.0003 20.6329V29.2137Z" fill="#8C8787"/>
<path id="Vector_4" d="M31.4844 22.1813C31.4844 23.8918 30.098 25.2781 28.3876 25.2781H19.0971C17.3866 25.2781 16.0003 23.8918 16.0003 22.1813V20.6329C16.0003 20.348 16.2315 20.1168 16.5164 20.1168H30.9682C31.2531 20.1168 31.4844 20.348 31.4844 20.6329V22.1813Z" fill="#D5CEC2"/>
<path id="Vector_5" d="M26.1011 20.1168H16.5164C16.2315 20.1168 16.0003 20.348 16.0003 20.6329V22.1813C16.0003 23.8918 17.3866 25.2781 19.0971 25.2781H24.067C25.187 23.8195 25.9204 22.0507 26.1011 20.1168Z" fill="#E7E4DD"/>
<path id="Vector_6" d="M31.4844 29.4072V30.9556C31.4844 31.2405 31.2531 31.4718 30.9682 31.4718H16.5164C16.2315 31.4718 16.0003 31.2405 16.0003 30.9556V29.4072H31.4844Z" fill="#D5CEC2"/>
<path id="Vector_7" d="M10.8389 17.5361L10.3227 19.0845L11.355 20.6329H12.3873L13.4196 19.0845L12.9034 17.5361" fill="#D5CEC2"/>
<path id="Vector_8" d="M15.4841 5.14877L14.6583 5.76814C13.8542 6.37099 12.8761 6.69718 11.8712 6.69718C10.8662 6.69718 9.88816 6.37099 9.08402 5.76814L8.2582 5.14877L7.22592 7.21332V10.3101C7.22592 12.1331 8.27833 13.7063 9.80661 14.4666V16.5038L11.8712 18.5683L13.9357 16.5038V14.4666C15.464 13.7058 16.5164 12.1326 16.5164 10.3101V7.21332L15.4841 5.14877Z" fill="#FADFB2"/>
<path id="Vector_9" d="M16.5163 7.72946L17.1104 6.35292C17.5759 5.27316 17.4939 4.03495 16.8884 3.02642C16.5075 2.39208 15.9434 1.88782 15.2698 1.58123L13.8298 0.925221C13.2192 0.647539 12.5565 0.503536 11.886 0.503536C10.8713 0.503536 9.88393 0.832832 9.07204 1.44136L8.18274 2.11285C7.46221 2.26873 6.82736 2.7157 6.43974 3.36191C5.9649 4.15314 5.92722 5.13226 6.34013 5.95756L7.22582 7.72946V7.21332L8.25809 5.14877L9.08391 5.76814C9.88806 6.37099 10.8661 6.69718 11.8711 6.69718C12.876 6.69718 13.8541 6.37099 14.6582 5.76814L15.484 5.14877L16.5163 7.21332V7.72946Z" fill="#C18E59"/>
<path id="Vector_10" d="M7.22592 7.72946H6.19365C5.62332 7.72946 5.16137 8.1914 5.16137 8.76173C5.16137 9.33207 5.62332 9.79401 6.19365 9.79401H7.22592" fill="#EFBE9A"/>
<path id="Vector_11" d="M16.5164 7.72946H17.5487C18.119 7.72946 18.5809 8.1914 18.5809 8.76173C18.5809 9.33207 18.119 9.79401 17.5487 9.79401H16.5164" fill="#EFBE9A"/>
<g id="Group_2">
<path id="Vector_12" d="M5.16137 22.1808H6.19365V31.4708H5.16137V22.1808Z" fill="#C16B3F"/>
</g>
<path id="Vector_13" d="M12.3873 20.6329L13.4196 23.2136L11.8712 29.9234L10.3227 23.2136L11.355 20.6329" fill="#E7E4DD"/>
<path id="Vector_14" d="M23.7423 27.3427C23.172 27.3427 22.71 26.8807 22.71 26.3104V23.2136H24.7746V26.3104C24.7746 26.8807 24.3126 27.3427 23.7423 27.3427Z" fill="#F2C351"/>
<g id="Group_3">
<path id="Vector_15" d="M26.8391 20.1163L26.8386 18.0517C26.8386 17.7668 26.6074 17.5356 26.3225 17.5356H21.1616C20.8767 17.5356 20.6455 17.7668 20.6455 18.0517V20.1157L19.6132 20.1163V18.0517C19.6132 17.198 20.3079 16.5033 21.1616 16.5033H26.3225C27.1762 16.5033 27.8709 17.198 27.8709 18.0517L27.8714 20.1157L26.8391 20.1163Z" fill="#8C8787"/>
</g>
<path id="Vector_16" d="M24.7746 24.2262V23.2136H22.71V26.3104C22.71 26.4358 22.7359 26.5545 22.7766 26.666C23.5643 25.9641 24.2394 25.1424 24.7746 24.2262Z" fill="#F7D881"/>
<path id="Vector_17" d="M30.9682 19.6008H27.8714V18.0524C27.8714 17.1987 27.1767 16.504 26.323 16.504H21.1616C20.7167 16.504 20.3177 16.6955 20.0354 16.9969L14.4518 16.0663V14.7729C15.992 13.8789 17.0325 12.2154 17.0325 10.3103H17.5487C18.4024 10.3098 19.0966 9.61509 19.0966 8.76192C19.0966 7.90823 18.4024 7.21351 17.5487 7.21351H17.3009L17.5838 6.5575C18.1138 5.32806 18.0194 3.90868 17.3303 2.76079C16.8937 2.03355 16.2552 1.46322 15.4831 1.11173L14.0425 0.45572C12.3434 -0.318486 10.2562 -0.0924178 8.76195 1.02863L7.948 1.63922L7.94903 1.64077C7.14334 1.85084 6.43314 2.36904 5.99648 3.0968C5.4277 4.04391 5.38331 5.20005 5.87777 6.18846L6.39081 7.21351H6.19365C5.33996 7.21351 4.64524 7.90823 4.64524 8.76192C4.64524 9.61509 5.33944 10.3098 6.19365 10.3103H6.70979C6.70979 12.2159 7.75032 13.8794 9.29047 14.7734V16.0668L3.01889 17.1115C1.26918 17.4031 0 18.902 0 20.6754V31.4709C0 31.7564 0.230713 31.9871 0.516137 31.9871H16.5164H17.032H30.9677C31.537 31.9871 32 31.5246 32 30.9548V20.6331C32.0005 20.0633 31.5375 19.6008 30.9682 19.6008ZM30.9682 22.181C30.9677 23.604 29.8105 24.7611 28.387 24.7611H25.2902V23.2132C25.2902 22.9278 25.0595 22.6971 24.7741 22.6971H22.7095C22.4241 22.6971 22.1934 22.9278 22.1934 23.2132V24.7611H19.0966C17.6741 24.7611 16.5174 23.605 16.5159 22.1836V20.6331H30.9677L30.9682 22.181ZM16.5164 24.7044C17.1729 25.3753 18.0865 25.7934 19.0971 25.7934H22.1939V26.3106C22.1939 27.1638 22.8886 27.858 23.7423 27.858C24.596 27.858 25.2907 27.1638 25.2907 26.3106V25.7934H28.3876C29.3987 25.7934 30.3122 25.3748 30.9688 24.7039L30.9693 28.8908H16.5164V24.7044ZM23.2262 26.3106V23.7294H24.2585V26.3106C24.2585 26.595 24.0272 26.8257 23.7423 26.8257C23.4579 26.8257 23.2262 26.595 23.2262 26.3106ZM20.6455 18.153C21.4579 18.3198 22.1284 18.8658 22.4675 19.6008H20.6455V18.153ZM26.8391 18.0524V19.6008H23.5715C23.2953 18.7177 22.6915 17.9843 21.9002 17.5363H26.323C26.6074 17.5363 26.8391 17.7675 26.8391 18.0524ZM18.0643 8.76192C18.0643 9.04631 17.8331 9.27806 17.5487 9.27806H17.0325V8.24578H17.5487C17.8331 8.24578 18.0643 8.47701 18.0643 8.76192ZM6.88218 3.6279C7.27444 2.97395 7.99135 2.56827 8.75369 2.56827C9.56299 2.56827 10.314 2.97034 10.763 3.64338L10.9251 3.88649L11.7844 3.31409L11.6224 3.07099C11.1568 2.37265 10.4626 1.88284 9.67551 1.66451C10.844 0.939857 12.3589 0.82321 13.6157 1.39457L15.0562 2.05058C15.6369 2.31536 16.1179 2.74427 16.4457 3.29138C16.9639 4.15539 17.0356 5.22328 16.6367 6.1482L16.6016 6.22975L15.9461 4.91824C15.8779 4.78095 15.752 4.68185 15.6028 4.64676C15.4547 4.61269 15.2973 4.64469 15.1744 4.73605L14.3486 5.35541C13.6379 5.88807 12.7584 6.18123 11.8712 6.18123C10.9839 6.18123 10.1039 5.88807 9.3937 5.3549L8.56788 4.73553C8.44556 4.64418 8.2902 4.61269 8.13949 4.64624C7.99032 4.68134 7.8649 4.78095 7.79625 4.91773L7.09637 6.31698L6.80114 5.72652C6.46565 5.05554 6.4961 4.27101 6.88218 3.6279ZM6.19365 9.27806C5.90926 9.27806 5.67751 9.04631 5.67751 8.76192C5.67751 8.47701 5.90874 8.24578 6.19365 8.24578H6.70979V9.27806H6.19365ZM7.74206 10.3103V7.33532L8.44297 5.93297L8.77434 6.18123C9.66209 6.84705 10.762 7.21351 11.8712 7.21351C12.9803 7.21351 14.0802 6.84705 14.968 6.18123L15.2988 5.93297L16.0003 7.33532V10.3103C16.0003 12.587 14.1478 14.4394 11.8712 14.4394C9.59396 14.4394 7.74206 12.587 7.74206 10.3103ZM11.8712 15.4717C12.4105 15.4717 12.9303 15.3876 13.4196 15.2338V16.2903L11.8712 17.8387L10.3227 16.2903V15.2338C10.812 15.3876 11.3318 15.4717 11.8712 15.4717ZM11.7044 21.1487H12.0379L12.8807 23.2545L11.8712 27.6278L10.8616 23.2545L11.7044 21.1487ZM12.8498 19.0083L12.1106 20.1164H11.6312L10.892 19.0083L11.0639 18.4916L11.5057 18.9334C11.6064 19.0341 11.7385 19.0842 11.8712 19.0842C12.0033 19.0842 12.1354 19.0341 12.2361 18.9334L12.6779 18.4916L12.8498 19.0083ZM6.19313 30.9548V22.181H5.16086V30.9548H1.03227V20.6754C1.03227 19.4088 1.93913 18.3383 3.18818 18.1298L9.62906 17.0568L10.2479 17.6756L9.83293 18.9211C9.78235 19.0718 9.80455 19.238 9.8928 19.3706L10.7744 20.693L9.84326 23.0207C9.80403 23.1183 9.79577 23.2256 9.81951 23.3289L11.3679 30.0386C11.4216 30.2725 11.6306 30.4381 11.8712 30.4381C12.1112 30.4381 12.3202 30.2725 12.3739 30.0386L13.9223 23.3289C13.946 23.2262 13.9378 23.1188 13.8985 23.0207L12.9674 20.693L13.849 19.3706C13.9373 19.238 13.9595 19.0718 13.9089 18.9211L13.4939 17.6756L14.1127 17.0568L19.621 17.9745C19.6199 18.0008 19.6132 18.0256 19.6132 18.0524V19.6008H16.5164C15.9471 19.6008 15.4841 20.0633 15.4841 20.6331V22.181V22.1861V30.9548H6.19313ZM17.032 30.9548H16.5164V29.9225H30.9688V30.9548H17.032Z" fill="black"/>
</g>
</svg>
