<svg preserveAspectRatio="none" width="100%" height="100%" overflow="visible" style="display: block;" viewBox="0 0 10.5469 15" fill="none" xmlns="http://www.w3.org/2000/svg">
<g id="Group">
<path id="Vector" d="M4.90778 14.8043C4.98929 14.9266 5.12651 15 5.27344 15C5.42036 15 5.55759 14.9266 5.63909 14.8043C6.6791 13.2443 8.21095 11.3177 9.27841 9.35833C10.1319 7.79165 10.5469 6.45545 10.5469 5.27344C10.5469 2.36566 8.18121 0 5.27344 0C2.36566 0 0 2.36566 0 5.27344C0 6.45545 0.414932 7.79165 1.26847 9.35833C2.33514 11.3162 3.86991 13.2475 4.90778 14.8043ZM5.27344 0.878906C7.69658 0.878906 9.66797 2.85029 9.66797 5.27344C9.66797 6.3048 9.28808 7.50346 8.50661 8.93786C7.58648 10.6268 6.27346 12.34 5.27344 13.7803C4.27356 12.3403 2.96045 10.6269 2.04026 8.93786C1.2588 7.50346 0.878906 6.3048 0.878906 5.27344C0.878906 2.85029 2.85029 0.878906 5.27344 0.878906Z" fill="#888E9B"/>
<path id="Vector_2" d="M5.27344 7.91016C6.72732 7.91016 7.91016 6.72732 7.91016 5.27344C7.91016 3.81955 6.72732 2.63672 5.27344 2.63672C3.81955 2.63672 2.63672 3.81955 2.63672 5.27344C2.63672 6.72732 3.81955 7.91016 5.27344 7.91016ZM5.27344 3.51562C6.2427 3.51562 7.03125 4.30418 7.03125 5.27344C7.03125 6.2427 6.2427 7.03125 5.27344 7.03125C4.30418 7.03125 3.51562 6.2427 3.51562 5.27344C3.51562 4.30418 4.30418 3.51562 5.27344 3.51562Z" fill="#888E9B"/>
</g>
</svg>
